<svg width="681" height="610" viewBox="0 0 681 610" fill="none" xmlns="http://www.w3.org/2000/svg">
<path d="M340.926 36.2282C311.343 32.8515 268.065 37.8102 241.724 40.9621C191.302 46.9968 133.872 50.9355 100.821 92.1064C71.0552 129.186 54.2458 173.523 36.1599 216.558C19.6518 255.839 8.38099 297.777 26.0563 338.335C28.7866 313.693 38.8306 291.388 59.2547 275.675C49.1773 304.943 48.6513 339.305 63.5194 367.133C62.4824 349.498 72.1258 331.612 84.998 319.932C92.2609 374.147 134.056 419.51 178.168 450.34C204.85 468.989 233.513 485.258 258.801 505.677C276.694 520.123 301.798 533.211 315.308 551.461C321.753 560.167 334.65 580.816 320.394 588.987C326.151 588.597 332.269 585.983 335.552 581.448C336.989 585.25 344.605 606.889 340.633 610.003C349.465 603.081 346.638 593.509 348.441 584.24C347.584 588.651 359.996 598.365 363.507 600.328C361.622 582.767 354.221 568.103 366.546 551.456C380.057 533.209 405.159 520.123 423.051 505.677C448.339 485.258 477.002 468.989 503.684 450.34C547.796 419.51 589.591 374.147 596.854 319.932C609.726 331.612 619.369 349.498 618.332 367.133C633.201 339.305 632.675 304.943 622.597 275.675C643.021 291.388 653.065 313.693 655.796 338.335C673.471 297.777 662.2 255.839 645.692 216.558C627.606 173.523 610.797 129.186 581.031 92.1064C547.98 50.9355 490.55 46.9968 440.128 40.9621C413.787 37.8102 370.508 32.8515 340.926 36.2282Z" fill="#174C4F"/>
<path d="M278.627 70.4176C255.271 50.0797 208.636 63.1345 181.849 74.0944C150.497 86.9221 127.175 110.16 112.789 139.817C90.1111 186.572 92.3477 251.907 128.186 292.721C202.453 377.299 321.623 316.97 335.575 217.615C343.118 163.888 320.233 106.647 278.627 70.4176Z" fill="#B4A673"/>
<path d="M403.225 70.4176C426.581 50.0797 473.216 63.1345 500.003 74.0944C531.356 86.9221 554.676 110.16 569.062 139.817C591.741 186.572 589.505 251.907 553.666 292.721C479.399 377.299 360.228 316.97 346.278 217.615C338.734 163.888 361.62 106.647 403.225 70.4176Z" fill="#B4A673"/>
<path d="M303.458 167.988C284.889 104.396 193.633 55.7249 149.909 124.043C120.864 169.425 120.55 247.867 181.674 268.912C208.469 278.137 251.339 270.939 273.056 253.882C305.403 228.477 311.845 196.71 303.458 167.988Z" fill="#F5FFD7"/>
<path d="M378.394 167.988C396.964 104.396 488.22 55.7249 531.943 124.043C560.989 169.425 561.302 247.867 500.179 268.912C473.384 278.137 430.513 270.939 408.797 253.882C376.449 228.477 370.007 196.71 378.394 167.988Z" fill="#F5FFD7"/>
<path d="M253.44 377.006C253.898 377.285 254.37 377.538 254.866 377.779L256.327 378.488C256.807 378.728 257.324 378.925 257.816 379.144C259.807 380 261.821 380.801 263.845 381.586L274.268 385.62C276.578 382.725 278.912 379.771 281.472 376.927C282.222 376.101 282.998 375.292 283.775 374.489C284.571 373.695 285.4 372.924 286.226 372.162C287.1 371.433 287.971 370.706 288.864 370.012C289.796 369.35 290.747 368.72 291.721 368.138L252.026 376.108C252.509 376.401 252.946 376.767 253.44 377.006Z" fill="#108F97"/>
<path d="M288.113 373.667C288.687 372.744 289.31 371.856 289.885 370.912C290.499 370.008 291.132 369.107 291.721 368.137C290.747 368.719 289.796 369.349 288.864 370.012C287.971 370.705 287.1 371.432 286.226 372.162C285.4 372.923 284.571 373.695 283.775 374.489C282.998 375.291 282.222 376.101 281.472 376.927C278.912 379.77 276.578 382.725 274.268 385.62L263.845 381.585C261.821 380.801 259.807 380 257.816 379.144C257.324 378.925 256.807 378.727 256.327 378.487L254.866 377.778C254.37 377.538 253.898 377.284 253.44 377.006C252.946 376.766 252.509 376.401 252.026 376.108C252.305 376.592 252.561 377.067 252.918 377.513C253.262 377.974 253.643 378.401 254.028 378.81C254.401 379.246 254.83 379.606 255.244 379.995C255.657 380.388 256.098 380.733 256.527 381.106C256.96 381.475 257.419 381.793 257.866 382.141C258.314 382.49 258.787 382.787 259.247 383.115C260.176 383.749 261.13 384.345 262.094 384.916C265.959 387.192 270.015 389.076 274.144 390.721L274.188 390.738C275.183 391.135 276.367 390.85 277.04 389.98L279.092 387.333L281.016 384.634C282.253 382.818 283.471 381.008 284.626 379.164L288.113 373.667Z" fill="black"/>
<path d="M395.626 372.162C396.451 372.924 397.28 373.695 398.077 374.489C398.854 375.292 399.629 376.101 400.38 376.927C402.94 379.771 405.274 382.725 407.584 385.62L418.007 381.586C420.031 380.801 422.045 380 424.036 379.144C424.528 378.925 425.045 378.728 425.524 378.488L426.986 377.779C427.482 377.538 427.954 377.285 428.411 377.006C428.906 376.767 429.343 376.401 429.826 376.108L390.131 368.138C391.105 368.72 392.056 369.35 392.988 370.012C393.881 370.706 394.752 371.433 395.626 372.162Z" fill="#108F97"/>
<path d="M428.411 377.006C427.954 377.284 427.482 377.538 426.986 377.778L425.524 378.487C425.045 378.728 424.528 378.925 424.036 379.144C422.045 380 420.031 380.801 418.007 381.585L407.584 385.62C405.274 382.725 402.94 379.77 400.38 376.927C399.629 376.101 398.854 375.291 398.077 374.489C397.28 373.695 396.451 372.924 395.626 372.162C394.752 371.432 393.881 370.705 392.988 370.012C392.056 369.35 391.105 368.719 390.131 368.137C390.719 369.107 391.353 370.008 391.967 370.912C392.542 371.856 393.165 372.744 393.739 373.667L397.226 379.164C398.381 381.008 399.599 382.818 400.836 384.634L402.76 387.333L404.81 389.98C405.455 390.811 406.625 391.152 407.665 390.737L407.708 390.721C411.838 389.076 415.893 387.192 419.758 384.917C420.722 384.345 421.676 383.75 422.605 383.115C423.065 382.787 423.538 382.49 423.985 382.141C424.433 381.793 424.892 381.475 425.325 381.106C425.754 380.733 426.195 380.388 426.608 379.995C427.022 379.606 427.451 379.246 427.823 378.81C428.209 378.401 428.59 377.974 428.934 377.513C429.291 377.067 429.546 376.591 429.826 376.108C429.343 376.401 428.906 376.767 428.411 377.006Z" fill="black"/>
<path d="M322.909 370.3C323.922 370.802 324.932 371.328 325.894 371.897C326.879 372.444 327.849 373.017 328.797 373.618C329.758 374.203 330.712 374.801 331.644 375.427C332.58 376.046 333.531 376.656 334.444 377.308C335.36 377.956 336.303 378.58 337.204 379.253C338.46 380.159 339.696 381.096 340.926 382.045C342.157 381.096 343.392 380.159 344.649 379.253C345.549 378.58 346.492 377.956 347.409 377.308C348.322 376.656 349.272 376.046 350.209 375.427C351.139 374.801 352.094 374.203 353.055 373.618C354.003 373.017 354.972 372.444 355.959 371.897C356.924 371.326 357.927 370.804 358.935 370.305C359.435 370.048 359.934 369.792 360.462 369.586L362.014 368.933H319.838L321.388 369.584C321.911 369.787 322.407 370.043 322.909 370.3Z" fill="#108F97"/>
<path d="M322.608 370.796C323.495 371.448 324.361 372.112 325.203 372.833C326.059 373.525 326.894 374.24 327.708 374.983C328.533 375.708 329.348 376.443 330.139 377.207C330.936 377.962 331.739 378.705 332.508 379.488C333.279 380.268 334.071 381.02 334.818 381.817C336.343 383.385 337.81 384.993 339.253 386.608L339.486 386.832C340.41 387.6 341.804 387.499 342.6 386.608C344.042 384.993 345.51 383.385 347.033 381.817C347.781 381.02 348.574 380.268 349.344 379.488C350.113 378.705 350.917 377.962 351.713 377.207C352.505 376.443 353.32 375.708 354.145 374.983C354.958 374.24 355.793 373.525 356.649 372.833C357.488 372.113 358.361 371.446 359.253 370.792C359.693 370.457 360.135 370.121 360.609 369.836L362.014 368.933L360.462 369.586C359.934 369.792 359.435 370.048 358.935 370.305C357.927 370.805 356.924 371.326 355.959 371.898C354.972 372.444 354.003 373.017 353.055 373.618C352.094 374.203 351.139 374.801 350.209 375.427C349.272 376.047 348.322 376.657 347.409 377.308C346.492 377.956 345.549 378.58 344.649 379.254C343.392 380.159 342.157 381.096 340.926 382.046C339.696 381.096 338.46 380.159 337.204 379.254C336.303 378.58 335.36 377.956 334.444 377.308C333.531 376.657 332.58 376.047 331.644 375.427C330.712 374.801 329.758 374.203 328.797 373.618C327.849 373.017 326.879 372.444 325.894 371.898C324.932 371.328 323.922 370.802 322.909 370.3C322.407 370.043 321.911 369.787 321.388 369.584L319.838 368.933L321.246 369.837C321.725 370.126 322.169 370.463 322.608 370.796Z" fill="black"/>
<path d="M290.486 422.42C291.711 423.032 292.917 423.697 294.128 424.362C295.283 425.08 296.449 425.798 297.585 426.552C299.813 428.09 301.97 429.679 304.081 431.271L307.238 433.601L308.19 434.259L309.201 432.35C309.936 430.925 310.63 429.47 311.343 428.01C312.732 425.072 314.135 422.083 315.663 419.111C316.44 417.629 317.252 416.157 318.118 414.706C318.995 413.258 319.962 411.856 320.949 410.474C321.461 409.791 322.002 409.128 322.538 408.468L324.249 406.564L326.106 404.8C326.774 404.261 327.432 403.721 328.109 403.211L282.625 419.951C283.963 420.227 285.288 420.537 286.602 420.875C287.887 421.344 289.181 421.878 290.486 422.42Z" fill="#108F97"/>
<path d="M321.264 416.191C321.594 415.455 321.892 414.702 322.208 413.956L323.222 411.751C323.599 411.04 323.939 410.301 324.299 409.57L325.475 407.426L326.742 405.307C327.196 404.619 327.661 403.93 328.109 403.211C327.432 403.722 326.774 404.261 326.106 404.8L324.249 406.564L322.538 408.469C322.002 409.129 321.461 409.791 320.949 410.474C319.962 411.856 318.995 413.259 318.118 414.707C317.252 416.157 316.44 417.629 315.663 419.112C314.135 422.083 312.732 425.072 311.343 428.01C310.63 429.47 309.936 430.925 309.201 432.351L308.19 434.259L307.238 433.601L304.081 431.271C301.97 429.68 299.813 428.09 297.585 426.553C296.449 425.798 295.283 425.081 294.128 424.362C292.917 423.697 291.711 423.033 290.486 422.42C289.181 421.879 287.887 421.344 286.602 420.875C285.288 420.537 283.963 420.227 282.625 419.951C283.784 420.657 284.961 421.319 286.14 421.971C287.212 422.765 288.288 423.475 289.33 424.212C290.332 425.064 291.367 425.847 292.374 426.662C293.349 427.538 294.319 428.407 295.306 429.255C297.231 431.035 299.199 432.797 301.191 434.582L304.292 437.195L307.599 439.671L307.876 439.849C309.001 440.468 310.434 440.091 311.076 439.006L311.117 438.938L312.432 436.718L313.64 434.464C314.392 432.944 315.124 431.426 315.78 429.888C316.444 428.357 317.073 426.823 317.674 425.288L319.459 420.712C320.047 419.194 320.655 417.691 321.264 416.191Z" fill="black"/>
<path d="M355.748 404.8L357.605 406.564L359.316 408.468C359.851 409.128 360.392 409.791 360.905 410.474C361.892 411.856 362.858 413.258 363.734 414.706C364.601 416.157 365.414 417.629 366.19 419.111C367.718 422.083 369.121 425.072 370.511 428.01C371.224 429.47 371.917 430.925 372.653 432.35L373.664 434.259L374.615 433.601L377.772 431.271C379.884 429.679 382.041 428.09 384.269 426.552C385.405 425.798 386.571 425.08 387.726 424.362C388.936 423.697 390.142 423.032 391.367 422.42C392.673 421.878 393.967 421.344 395.252 420.875C396.565 420.537 397.89 420.227 399.229 419.951L353.745 403.211C354.422 403.721 355.079 404.261 355.748 404.8Z" fill="#108F97"/>
<path d="M391.367 422.42C390.142 423.033 388.936 423.697 387.726 424.362C386.571 425.081 385.405 425.798 384.269 426.553C382.041 428.09 379.884 429.68 377.772 431.271L374.615 433.602L373.664 434.259L372.653 432.351C371.917 430.926 371.224 429.47 370.511 428.01C369.121 425.072 367.718 422.083 366.19 419.112C365.414 417.629 364.601 416.157 363.734 414.707C362.858 413.259 361.892 411.856 360.905 410.474C360.392 409.791 359.851 409.129 359.316 408.469L357.605 406.564L355.748 404.8C355.079 404.261 354.422 403.722 353.745 403.211C354.192 403.93 354.658 404.619 355.112 405.307L356.378 407.426L357.554 409.57C357.915 410.301 358.255 411.04 358.632 411.751L359.645 413.956C359.961 414.702 360.259 415.455 360.589 416.191C361.2 417.691 361.806 419.194 362.393 420.712L364.179 425.288C364.781 426.823 365.41 428.357 366.074 429.888C366.73 431.427 367.462 432.944 368.213 434.464L369.422 436.718L370.736 438.938L370.784 439.018L370.962 439.272C371.757 440.258 373.231 440.437 374.253 439.671L377.561 437.195L380.663 434.582C382.655 432.797 384.622 431.036 386.547 429.255C387.535 428.407 388.505 427.538 389.48 426.662C390.487 425.847 391.522 425.064 392.524 424.212C393.566 423.475 394.641 422.765 395.713 421.971C396.893 421.319 398.07 420.657 399.229 419.951C397.89 420.227 396.565 420.537 395.252 420.876C393.967 421.344 392.673 421.879 391.367 422.42Z" fill="black"/>
<path d="M321.738 473.519L323.152 474.594C323.617 474.96 324.111 475.291 324.54 475.702L327.194 478.098L328.529 479.307C328.965 479.717 329.445 480.101 329.835 480.546L332.29 483.15L333.516 484.466C333.917 484.91 334.348 485.332 334.727 485.796L336.462 488.029C336.577 487.791 336.695 487.553 336.804 487.313L337.911 485.13C338.285 484.403 338.761 483.73 339.196 483.039C340.163 481.713 341.163 480.416 342.141 479.115L345.334 475.425L348.747 471.969L352.326 468.717L356.038 465.64L359.843 462.698L318.908 471.367L321.738 473.519Z" fill="#108F97"/>
<path d="M352.326 468.717L348.747 471.969L345.334 475.425L342.141 479.115C341.163 480.416 340.163 481.713 339.196 483.039C338.761 483.73 338.285 484.404 337.911 485.131L336.804 487.313C336.695 487.553 336.577 487.791 336.462 488.029L334.727 485.797C334.348 485.333 333.917 484.911 333.516 484.466L332.29 483.15L329.835 480.546C329.445 480.101 328.965 479.718 328.529 479.307L327.194 478.099L324.54 475.702C324.111 475.291 323.617 474.96 323.152 474.594L321.738 473.519L318.908 471.367L321.294 473.971L322.487 475.274C322.878 475.713 323.304 476.127 323.647 476.6L325.806 479.338L326.881 480.696C327.23 481.155 327.615 481.577 327.921 482.073L329.853 484.946L330.823 486.37C331.138 486.849 331.484 487.308 331.772 487.801L335.079 493.752C335.293 494.137 335.626 494.464 336.059 494.68C337.193 495.242 338.584 494.811 339.167 493.718L339.319 493.435C339.676 492.763 340.062 492.105 340.387 491.426C340.703 490.742 340.951 490.029 341.251 489.337C341.581 488.658 342.011 488.027 342.373 487.364C342.749 486.709 343.023 486.001 343.337 485.309C344.034 483.962 344.769 482.626 345.489 481.271L347.946 477.354L350.657 473.55L353.577 469.853L356.652 466.239L359.843 462.698L356.038 465.64L352.326 468.717Z" fill="black"/>
<path d="M253.699 176.451C253.699 186.782 244.065 195.157 232.179 195.157C220.294 195.157 210.659 186.782 210.659 176.451V172.71C210.659 162.379 220.294 154.004 232.179 154.004C244.065 154.004 253.699 162.379 253.699 172.71V176.451Z" fill="black"/>
<path d="M218.873 165.59C216.534 168.391 215.067 171.569 215.433 175.228C215.663 177.509 219.385 177.531 219.155 175.228C218.885 172.538 219.756 170.219 221.504 168.126C222.995 166.342 220.379 163.788 218.873 165.59Z" fill="white"/>
<path d="M228.12 160.807C227.412 160.124 226.289 160.135 225.553 160.757L225.531 160.77C224.731 160.995 224.116 161.574 224.116 162.474C224.116 163.366 224.967 164.379 225.976 164.267C226.822 164.173 227.5 163.915 228.12 163.343C228.852 162.668 228.825 161.486 228.12 160.807Z" fill="white"/>
<path d="M475.742 175.911C475.742 183.265 468.884 189.226 460.424 189.226C451.965 189.226 445.106 183.265 445.106 175.911V173.248C445.106 165.895 451.965 159.934 460.424 159.934C468.884 159.934 475.742 165.895 475.742 173.248V175.911Z" fill="black"/>
<path d="M450.953 168.181C449.287 170.174 448.244 172.437 448.504 175.041C448.667 176.665 451.317 176.68 451.152 175.041C450.961 173.127 451.582 171.475 452.826 169.987C453.886 168.717 452.024 166.898 450.953 168.181Z" fill="white"/>
<path d="M457.534 164.776C457.031 164.29 456.232 164.299 455.708 164.741L455.691 164.751C455.123 164.911 454.685 165.322 454.685 165.963C454.685 166.598 455.29 167.319 456.009 167.239C456.61 167.173 457.093 166.989 457.534 166.581C458.055 166.101 458.036 165.26 457.534 164.776Z" fill="white"/>
<path d="M88.604 119.133C89.1759 119.03 103.735 107.983 107.693 106.076C118.725 100.759 128.892 94.7503 140.821 91.2588C146.004 89.7414 151.23 88.621 156.478 87.8833C147.113 94.4214 138.777 102.106 131.509 110.766C128.817 111.19 126.127 111.717 123.439 112.351C112.227 114.996 99.9753 117.08 88.604 119.133Z" fill="#154447"/>
<path d="M322.814 226.207C316.147 220.041 310.686 212.622 305.37 205.034C307.563 194.2 307.151 183.242 304.676 172.628C306.456 175.988 308.106 179.407 309.621 182.885C314.986 195.211 322.053 212.884 322.814 226.207ZM131.509 110.765C138.777 102.106 147.113 94.4208 156.478 87.8826C161.661 87.1532 166.866 86.7957 172.065 86.7957C182.527 86.7957 192.973 88.2425 203.204 91.0142C188.073 91.8201 173.462 97.642 161.119 109.975C157.176 109.591 153.212 109.391 149.238 109.391C143.342 109.391 137.426 109.831 131.509 110.765Z" fill="#A29567"/>
<path d="M305.37 205.034C299.776 197.049 294.34 188.879 287.824 181.786C273.554 166.251 257.448 152.096 239.723 140.292C216.469 124.805 189.274 112.713 161.12 109.975C173.462 97.6422 188.074 91.8203 203.205 91.0144C206.352 91.8669 209.478 92.845 212.579 93.9439C251.667 107.807 285.604 136.645 304.677 172.628C307.152 183.242 307.563 194.2 305.37 205.034Z" fill="#DCE5C1"/>
<path d="M577.237 160.885C575.322 154.509 573.002 148.329 570.292 142.421C580.912 140.836 591.564 138.687 601.5 135.626C598.977 147.301 589.738 155.267 577.237 160.885Z" fill="#154447"/>
<path d="M355.983 235.349C360.331 220.479 366.997 208.272 375.442 198.204C375.992 203.524 377.139 208.834 378.948 214.088C367.948 220.435 358.154 227.924 355.983 235.349ZM549.115 169.36C547.715 161.202 545.533 153.187 542.662 145.582C545.987 145.272 549.28 144.955 552.524 144.623C558.347 144.026 564.314 143.313 570.291 142.421C573.001 148.329 575.321 154.508 577.236 160.885C568.959 164.606 559.251 167.299 549.115 169.36Z" fill="#A29567"/>
<path d="M378.947 214.088C377.139 208.834 375.991 203.524 375.442 198.205C412.39 154.156 483.342 151.099 542.662 145.582C545.532 153.187 547.714 161.202 549.115 169.36C523.648 174.539 495.486 175.729 480.54 179.223C478.621 179.671 476.702 180.118 474.78 180.565C475.402 179.116 475.742 177.548 475.742 175.912V173.249C475.742 165.895 468.883 159.934 460.423 159.934C451.965 159.934 445.106 165.895 445.106 173.249V175.912C445.106 180.12 447.353 183.873 450.859 186.313C436.989 189.854 423.265 193.899 410.043 199.294C405.759 201.041 399.091 203.827 391.872 207.306C387.631 209.351 383.198 211.634 378.947 214.088Z" fill="#DCE5C1"/>
<path d="M450.86 186.313C447.353 183.873 445.106 180.121 445.106 175.912V173.249C445.106 165.895 451.965 159.935 460.424 159.935C468.884 159.935 475.742 165.895 475.742 173.249V175.912C475.742 177.549 475.402 179.116 474.781 180.566C466.801 182.423 458.806 184.284 450.86 186.313ZM451.812 167.743C451.515 167.743 451.211 167.872 450.953 168.182C449.287 170.175 448.244 172.437 448.504 175.041C448.586 175.856 449.292 176.265 449.955 176.265C450.617 176.265 451.234 175.859 451.152 175.041C450.961 173.127 451.582 171.476 452.826 169.987C453.631 169.023 452.751 167.743 451.812 167.743ZM456.614 164.41C456.29 164.41 455.967 164.524 455.709 164.742L455.691 164.751C455.123 164.911 454.685 165.323 454.685 165.964C454.685 166.566 455.23 167.245 455.9 167.247C455.936 167.247 455.973 167.244 456.009 167.239C456.61 167.174 457.093 166.99 457.535 166.582C458.056 166.101 458.036 165.261 457.535 164.776C457.279 164.53 456.947 164.41 456.614 164.41Z" fill="black"/>
<path d="M449.955 176.265C449.292 176.265 448.586 175.856 448.504 175.041C448.244 172.437 449.287 170.175 450.953 168.182C451.211 167.872 451.515 167.743 451.812 167.743C452.751 167.743 453.631 169.023 452.826 169.987C451.582 171.476 450.961 173.127 451.152 175.041C451.234 175.859 450.617 176.265 449.955 176.265Z" fill="#E5E5E5"/>
<path d="M455.899 167.247C455.23 167.245 454.685 166.566 454.685 165.964C454.685 165.323 455.123 164.911 455.691 164.751L455.708 164.742C455.966 164.524 456.29 164.41 456.614 164.41C456.946 164.41 457.279 164.53 457.534 164.776C458.036 165.26 458.055 166.101 457.534 166.582C457.093 166.989 456.61 167.174 456.009 167.239C455.973 167.244 455.935 167.247 455.899 167.247Z" fill="#E5E5E5"/>
<path d="M608.617 46.9766C583.307 31.0592 554.607 21.9191 524.854 17.6265C479.147 11.0309 439.904 17.648 395.374 26.1974C389.755 27.2759 382.249 29.2871 376.582 27.5354C372.427 26.2512 362.981 13.0254 370.413 13.5407C362.023 12.9584 352.346 22.7573 354.003 30.9217C340.485 25.3114 342.524 10.3087 349.539 0.528982C337.572 7.00378 327.224 16.7525 325.764 30.1373C323.713 22.0782 318.444 14.7891 315.064 6.83755C312.483 34.6965 280.661 22.5409 262.718 19.7836C229.044 14.6085 190.751 12.7563 156.998 17.6265C127.246 21.9203 98.5443 31.0592 73.2352 46.9766C48.9358 62.259 31.9279 85.0624 0.0976562 84.2816C14.8889 105.327 49.4853 87.3068 67.0714 79.1066C47.8839 88.0577 39.0928 114.722 39.3979 133.745C39.0816 114.075 84.4018 95.9506 98.7887 90.3547C86.0603 101.47 76.0448 115.429 62.0388 125.878C98.7452 128.378 122.733 96.2304 161.075 94.7657C199.865 93.283 236.815 110.271 265.461 134.514C293.955 158.629 307.32 189.638 319.416 221.954C326.078 212.443 333.51 203.502 342.167 195.157C346.759 206.665 354.75 216.209 362.617 226.209C363.85 224.057 364.85 222.335 365.474 221.252C391.952 175.298 445.916 168.08 495.046 162.762C519.884 160.074 544.866 158.671 569.319 153.351C579.37 151.165 593.819 148.634 602.893 143.981C610.338 140.162 621.986 131.013 621.357 121.844C613.903 125.69 605.517 119.493 601.257 113.853C596.506 107.56 601.309 103.492 608.18 102.918C622.949 101.685 639.292 125.583 642.476 137.045C656.879 122.204 644.715 100.839 633.257 88.7931C641.461 97.4178 674.171 94.957 680.763 84.4646C650.844 83.5714 631.997 61.6803 608.617 46.9766Z" fill="#978469"/>
<path d="M319.415 221.954C326.175 240.015 332.541 258.482 340.925 276.383C337.985 270.105 354.974 239.551 362.616 226.209C354.749 216.208 346.758 206.665 342.166 195.157C333.509 203.502 326.077 212.443 319.415 221.954Z" fill="#2E2D2B"/>
<path d="M369.654 13.5449C369.908 13.5437 370.162 13.5222 370.413 13.5401C370.135 13.521 369.887 13.5258 369.654 13.5449Z" fill="#978469"/>
<path d="M488.541 122.218C430.637 131.149 373.823 168.22 363.501 224.669C364.33 223.231 365.006 222.063 365.473 221.252C391.951 175.298 445.916 168.08 495.046 162.763C519.883 160.073 544.865 158.671 569.318 153.351C579.369 151.165 593.818 148.634 602.892 143.981C612.479 139.065 624.366 128.876 622.742 117.236C620.387 125.978 603.939 123.439 597.258 123.306C561.047 122.585 524.644 116.65 488.541 122.218Z" fill="#7A613F"/>
<path d="M215.591 60.2614C200.243 56.2139 183.958 54.9392 167.242 57.0975C160.928 57.9118 154.74 59.4805 148.751 61.5575C135.403 66.1861 122.332 73.4489 110.573 81.0799C104.014 85.3355 98.2126 90.5751 92.6094 95.865C88.8186 99.4449 85.0525 103.042 81.5333 106.872C75.3906 113.554 68.1488 121.056 59.9097 125.374C60.1081 125.27 64.0379 126.339 64.7338 126.363C66.1343 126.41 67.5819 126.432 68.9873 126.413C73.5349 126.356 78.0601 124.921 82.4277 123.809C95.8967 120.376 107.935 113.183 120.207 107.069C133.004 100.694 146.493 95.3221 161.074 94.7649C199.865 93.2822 236.814 110.27 265.46 134.513C293.955 158.628 307.319 189.638 319.415 221.953C319.63 221.648 319.852 221.348 320.066 221.043C333.613 151.173 283.872 78.27 215.591 60.2614Z" fill="#7A613F"/>
<path d="M362.618 226.209C354.751 216.208 346.76 206.665 342.167 195.157C342.167 195.157 336.998 267.582 340.927 276.383C337.987 270.105 354.975 239.551 362.618 226.209Z" fill="#42413F"/>
</svg>
